# xmcd CD database file
#
# Track frame offsets:
#	150
#	23566
#	45015
#	68364
#	101040
#
# Disc length: 4440 seconds
#
# Revision: 0
# Processed by: cddbd v1.5PL3 Copyright (c) Steve Scherf et al.
# Submitted via: CDex 1.51
#
DISCID=2a115605
DTITLE=shela - 月と太陽
DYEAR=2004
DGENRE=JPop
TTITLE0=月と太陽
TTITLE1=OVER THERE
TTITLE2=月と太陽 -instrumental-
TTITLE3=OVER THERE -instrumental-
TTITLE4=CCCD DATA
EXTD=YEAR: 2004
EXTT0=
EXTT1=
EXTT2=
EXTT3=
EXTT4=
PLAYORDER=
